# xmcd CD database file
#
# Track frame offsets:
#	150
#	40288
#	70083
#	107431
#	139920
#	164251
#	185261
#	208026
#	226336
#	261174
#
# Disc length: 3739 seconds
#
# Revision: 0
# Processed by: cddbd v1.5.2PL0 Copyright (c) Steve Scherf et al.
# Submitted via: CDex 1.51
#
DISCID=870e990a
DTITLE=Miles Davis - Milt Jackson - Miles Davis and Milt Jackson
DYEAR=1955
DGENRE=Jazz
TTITLE0=Dr. Jackle
TTITLE1=Bitty Ditty
TTITLE2=Minor March
TTITLE3=Changes
TTITLE4=Wonder Why
TTITLE5=My Funny Valentine
TTITLE6=Moonray
TTITLE7=The Nearness of You
TTITLE8=Stonewall
TTITLE9=I Should Care
EXTD=YEAR: 1955
EXTT0=
EXTT1=
EXTT2=
EXTT3=
EXTT4=
EXTT5=
EXTT6=
EXTT7=
EXTT8=
EXTT9=
PLAYORDER=
